<?xml version="1.0" encoding="UTF-8"?>
<!DOCTYPE svg PUBLIC "-//W3C//DTD SVG 1.1//EN" "http://www.w3.org/Graphics/SVG/1.1/DTD/svg11.dtd">
<!-- Creator: CorelDRAW 2018 (64-Bit) -->
<svg xmlns="http://www.w3.org/2000/svg" xml:space="preserve" width="400px" height="237px" version="1.1" style="shape-rendering:geometricPrecision; text-rendering:geometricPrecision; image-rendering:optimizeQuality; fill-rule:evenodd; clip-rule:evenodd"
viewBox="0 0 400 236.82"
 xmlns:xlink="http://www.w3.org/1999/xlink">
 <defs>
  <style type="text/css">
   <![CDATA[
    .str0 {stroke:#FEFEFE;stroke-width:0.37;stroke-miterlimit:22.9256}
    .fil0 {fill:#FEFEFE}
    .fil1 {fill:#FEFEFE;fill-rule:nonzero}
   ]]>
  </style>
 </defs>
 <g id="Слой_x0020_1">
  <metadata id="CorelCorpID_0Corel-Layer"/>
  <path class="fil0 str0" d="M15.1 68.7c-19.15,14.72 -21.6,35.34 2.94,48.59 15.22,8.84 51.55,-5.4 67.75,-21.6 12.76,-12.76 26.5,-28.96 33.87,-47.61 7.36,-19.15 1.96,-28.96 1.96,-28.96 -13.25,-31.91 -59.4,-16.69 -81.49,-3.44 -15.71,9.82 -13.74,10.31 -13.74,10.31 0,0 -2.95,7.36 1.96,16.2 6.87,-14.73 24.55,-21.6 24.55,-21.6 0,0 29.94,-14.73 45.16,-14.24 37.8,0.49 -5.89,60.38 -14.24,71.18 -15.71,21.11 -42.21,28.47 -51.05,29.45 -8.84,1.48 -16.69,0.5 -18.16,-1.47 -1.97,-1.47 -7.37,-4.42 -3.93,-11.29 2.94,-7.36 21.11,-23.07 21.11,-23.07 -4.42,-3.44 -12.77,-5.4 -16.69,-2.45l0 0z"/>
  <path class="fil0 str0" d="M75.48 15.19c0,0 13.25,6.38 11.29,12.76 -1.97,6.87 -10.31,18.17 -10.31,18.17l-20.13 32.88 -12.27 18.17c0,0 -7.36,-6.38 -4.91,-11.78 1.96,-5.89 15.71,-28.48 15.71,-28.48 0,0 17.67,-30.43 19.14,-34.36 1.48,-3.92 1.48,-7.36 1.48,-7.36l0 0zm113.39 81.49c-0.49,5.89 -5.4,7.85 -11.29,7.85 -17.67,0.49 5.4,-31.91 5.4,-41.72 -21.11,2.45 -13.25,42.7 -52.03,41.72 -27.98,-0.49 -23.57,-45.16 7.36,-47.62 17.18,-1.47 16.2,25.53 -15.71,29.95 2.46,11.29 12.27,12.76 19.15,11.29 12.76,-2.95 18.65,-44.18 43.19,-40.25l5.89 0.98c4.91,-5.4 10.8,2.45 0.5,6.87 -10.31,23.07 -14.73,36.82 -2.46,30.93zm-66.76 -16.2c22.09,-5.4 24.05,-21.6 13.75,-18.17 -4.91,1.48 -13.26,11.29 -13.75,18.17z"/>
  <path class="fil0 str0" d="M215.87 95.69c-2.95,-0.98 -2.46,9.33 -15.71,8.84 -21.11,0 5.4,-59.89 28.47,-45.16 1.97,1.47 12.27,-3.44 11.29,-0.98 -11.78,27.98 -10.8,26.5 -13.25,32.4 -3.93,9.81 3.43,7.85 7.36,5.89 -3.43,6.38 -6.87,7.85 -10.31,7.85 -4.91,0 -8.83,-3.44 -6.87,-8.34 0.49,-0.99 -0.98,-0.5 -0.98,-0.5l0 0zm-8.35 -0.49c-12.27,-0.98 -1.96,-25.52 10.8,-30.43 6.88,-2.95 9.33,-0.49 7.86,4.91 -2.46,12.27 -12.27,26.51 -18.66,25.52z"/>
  <path class="fil0 str0" d="M308.16 95.69c-1.97,1.97 -5.4,8.84 -7.37,7.86 -7.36,-2.46 1.48,-21.6 1.48,-28.96 0,-1.97 -0.5,-6.39 -3.44,-2.46 -0.98,1.47 -1.96,2.95 -2.95,4.42 -6.87,13.25 -10.8,28.96 -36.81,27.98 -28.47,-0.98 -24.06,-45.16 7.36,-47.62 16.69,-1.47 15.22,25.53 -16.69,29.95 2.45,10.8 13.75,12.27 20.13,10.8 10.8,-1.97 19.14,-22.09 27.49,-34.85 0,-0.5 -7.37,0.98 -16.2,-7.86 -3.44,-3.44 -11.78,-9.82 -19.15,-9.33 -9.82,0.99 -13.74,7.86 -18.65,7.37 -5.89,-0.98 -3.44,-16.2 16.69,-18.17 7.85,-0.49 10.8,0.5 18.16,6.88 3.44,2.94 11.29,12.76 16.69,14.72 5.4,1.97 7.37,-1.96 7.86,-1.96l10.3 0c0,-0.49 -8.34,31.91 -5.89,34.85 1.48,1.48 20.13,-29.94 26.02,-32.89 3.44,-0.49 5.4,-0.49 5.4,0.49 0.49,7.86 -13.25,29.95 -10.31,38.29 1.47,3.93 14.24,-3.43 14.24,-1.96 -1.48,4.91 -13.26,12.27 -19.15,10.8 -10.8,-2.45 2.95,-27.98 2.46,-31.42 -2.95,0.49 -7.86,8.35 -17.67,23.07l0 0zm-58.42 -15.7c21.6,-5.4 24.54,-21.6 14.24,-18.17 -4.91,1.48 -14.24,11.29 -14.24,18.17zm-139.9 102.1c-39.76,54.49 -62.34,43.2 -62.34,43.2 0,0 -17.18,-1.47 -14.73,-37.31 3.93,-62.83 97.69,-109.96 82.96,-63.32 -12.27,38.29 -32.4,43.19 -32.4,43.19l-9.82 -10.3c0,0 30.93,-13.26 36.82,-41.73 -38.29,9.33 -59.4,57.43 -59.4,70.69 0.49,13.25 -1.96,27.49 12.77,28.96 14.23,1.96 47.12,-42.22 47.12,-42.22l-0.98 8.84 0 0z"/>
  <path class="fil0 str0" d="M132.91 182.09c-2.95,-0.49 -2.45,9.33 -15.71,8.84 -21.11,0 5.4,-58.91 28.47,-43.69 1.97,0.98 12.27,-3.93 11.29,-1.48 -11.78,27.49 -10.8,26.02 -12.76,31.91 -4.42,9.82 2.95,7.37 6.87,5.89 -2.94,5.89 -6.87,7.37 -10.31,7.37 -4.9,0.49 -8.83,-3.44 -6.87,-8.35 0.49,-0.98 -0.98,-0.49 -0.98,-0.49l0 0zm-7.36 0c-12.77,-0.98 -2.46,-25.04 10.8,-29.94 6.87,-2.95 8.83,-0.49 7.85,4.9 -2.95,12.28 -12.76,26.02 -18.65,25.04zm50.07 -55.47c0.98,0 1.47,0 1.47,0.49 5.89,5.89 13.74,4.42 23.07,-1.47 0,0 0.49,0 0.98,0.49 1.97,3.44 -6.87,11.78 -15.21,14.23 -9.82,1.97 -18.66,-11.29 -10.31,-13.74l0 0zm-7.86 18.65c0,0 -8.34,14.73 -10.8,25.04 -1.96,10.31 2.46,19.14 8.35,20.12 5.89,0.5 9.33,-3.92 11.29,-7.85 1.96,-3.93 2.45,7.36 9.33,6.87 6.87,-0.98 8.83,-8.34 8.83,-8.34l-1.47 -1.47c0,0 -2.46,3.92 -3.93,3.92 -1.47,0 -9.33,3.44 10.31,-34.36 -2.45,-4.42 -3.44,-4.42 -6.87,-4.91 -3.44,-0.49 -14.24,28.96 -15.22,32.4 -0.98,3.44 -6.87,10.31 -8.84,8.35 -1.96,-1.97 -7.36,-10.31 8.84,-36.33 -3.93,-6.87 -9.82,-3.44 -9.82,-3.44zm80.51 43.2c0,0 7.85,-14.73 10.31,-25.03 1.96,-10.31 -1.97,-18.66 -7.86,-19.64 -5.89,-0.49 -8.83,3.44 -10.8,7.36 -2.45,3.93 -2.94,-7.36 -9.82,-6.87 -8.83,0.98 -10.3,7.86 -11.78,8.84 -1.96,-4.91 -5.4,-7.37 -10.3,-9.33 0,2.46 -1.97,5.89 -3.44,8.35l4.91 -3.44c0.49,7.85 -3.44,17.18 -11.78,32.4 1.47,3.43 3.43,6.87 6.38,7.85 6.38,-8.83 11.29,-19.14 13.74,-30.43 0.49,-0.49 2.95,-2.46 4.91,-3.93 18.16,-15.22 -5.89,29.45 -6.38,29.94 2.45,4.42 4.42,4.42 7.85,4.91 3.93,0.49 13.26,-27.98 14.24,-31.41 0.98,-3.44 7.85,-7.86 8.84,-6.39 0.98,0.99 8.34,3.44 -7.86,32.4 2.95,7.86 8.84,4.42 8.84,4.42l0 0z"/>
  <path class="fil0" d="M292.94 185.53c0,0 12.76,-30.44 10.8,-37.8 -1.48,-7.86 8.83,2.45 8.34,6.87 -0.98,4.42 -6.87,30.93 -11.78,34.85 -4.42,3.93 -7.36,-3.92 -7.36,-3.92l0 0zm-31.91 -7.37c2.95,-7.85 6.38,-18.65 7.85,-27.49 0,-1.47 -4.41,0 -4.41,0 0.49,-0.98 4.41,-4.41 4.91,-6.87 4.41,0 7.85,1.96 9.32,5.89 0.49,1.96 -0.98,5.4 -3.43,11.29 17.18,2.95 21.6,12.27 13.74,23.56 -5.89,8.35 -22.09,8.84 -31.42,1.48l3.44 -7.86 0 0zm12.76 -9.32c1.48,-0.99 12.77,0.49 9.82,6.87 -2.45,6.38 -4.91,7.36 -7.85,8.34 -2.95,0.99 -5.89,0.49 -7.37,-2.94 -1.47,-2.95 5.4,-12.27 5.4,-12.27z"/>
  <path class="fil0 str0" d="M86.28 236.58c0,0 -4.91,-3.93 -0.5,-14.24 4.42,-10.8 88.85,-17.67 85.42,-14.23 -3.44,3.43 -4.42,1.96 -8.35,5.4 -31.9,-0.49 -60.37,8.83 -76.57,23.07zm154.13 -28.96c2.95,-1.48 48.11,2.94 59.4,3.92 11.29,0.98 31.91,-20.61 43.2,-46.14 -3.93,-5.4 -9.82,-14.73 -3.93,-27 7.86,-18.65 24.05,-51.05 27,-54.98 2.95,5.89 -32.4,61.36 -20.62,71.67 14.24,-21.11 28.47,-27 36.33,-17.18 5.89,8.35 -4.91,25.53 -29.95,25.53 -12.27,21.6 -26.5,56.45 -51.54,54.48 -20.12,-4.9 -40.74,-5.89 -64.8,-5.4 0.5,-1.47 3.93,-3.92 4.91,-4.9l0 0zm113.4 -49.58c0,0 11.78,-22.58 21.11,-16.2 9.81,6.87 -22.58,18.65 -21.11,16.2z"/>
  <path class="fil0 str0" d="M362.15 72.62c0,0 -4.91,1.48 -9.32,5.4 -4.91,4.42 -6.88,-30.92 12.27,-27.98 5.4,-23.56 26.01,-38.78 30.43,-37.31 7.86,9.82 4.42,27 -6.38,48.6 11.29,-2.45 8.35,22.58 -13.74,27.98 -1.48,-1.96 -0.49,-10.8 -0.49,-10.8l-12.77 -5.89 0 0zm17.18 8.84c-0.98,-1.96 4.42,-18.16 9.82,-15.22 5.4,2.95 -5.4,17.18 -9.82,15.22zm-23.56 -9.82c-0.98,0 -2.94,-15.71 6.87,-15.71 3.44,3.44 -4.41,14.73 -6.87,15.71zm11.29 -3.44c0,0 7.86,-38.28 26.02,-48.59 5.4,18.65 -19.15,51.54 -19.15,51.54l-6.87 -2.95 0 0zm-194.88 148.74l4.73 0 0 5.11 -4.73 0 0 -5.11z"/>
  <path class="fil1" d="M185.93 204.67l-4.91 0 0 25.04 4.91 0 0 -8.84c1.47,1.47 3.43,2.45 5.89,2.45 4.41,0 7.85,-3.43 7.85,-9.32 0,-5.89 -3.44,-9.82 -8.34,-9.82 -2.46,0 -4.42,0.98 -5.4,2.45l0 -1.96zm4.41 3.44c2.46,0 4.42,1.96 4.42,5.89 0,3.43 -1.96,5.4 -4.42,5.4 -2.94,0 -4.41,-1.97 -4.41,-5.4 0,-3.93 1.47,-5.89 4.41,-5.89zm39.27 5.4c0,-5.89 -2.45,-9.33 -6.87,-9.33 -2.45,0 -3.93,0.98 -4.42,1.96l0 -8.34 -4.91 0 0 8.34c-0.49,-0.98 -1.96,-1.96 -4.41,-1.96 -3.93,0 -6.88,3.44 -6.88,9.33 0,4.91 1.97,9.81 7.37,9.81 1.47,0 2.94,-0.49 3.92,-1.47l0 7.86 4.91 0 0 -7.86c0.99,0.98 2.46,1.47 3.93,1.47 5.4,0 7.36,-4.9 7.36,-9.81zm-4.9 0c0,2.94 -0.99,5.89 -3.44,5.89 -1.47,0 -2.46,-0.49 -2.95,-1.48l0 -7.85c0.49,-1.47 1.97,-1.96 2.95,-1.96 2.45,0 3.44,1.96 3.44,5.4zm-11.3 4.41c0,0.99 -1.47,1.48 -2.94,1.48 -2.45,0 -3.44,-2.95 -3.44,-5.89 0,-3.44 0.99,-5.4 3.44,-5.4 0.98,0 2.45,0.49 2.94,1.96l0 7.85z"/>
 </g>
</svg>
